<?xml version="1.0" encoding="utf-8"?>
<!-- Svg Vector Icons : http://www.onlinewebfonts.com/icon -->
<!DOCTYPE svg PUBLIC "-//W3C//DTD SVG 1.1//EN" "http://www.w3.org/Graphics/SVG/1.1/DTD/svg11.dtd">
<svg version="1.1" xmlns="http://www.w3.org/2000/svg" xmlns:xlink="http://www.w3.org/1999/xlink" x="0px" y="0px" viewBox="0 0 1000 1000" enable-background="new 0 0 1000 1000" xml:space="preserve">
<metadata> Svg Vector Icons : http://www.onlinewebfonts.com/icon </metadata>
<g><g transform="translate(0.000000,511.000000) scale(0.100000,-0.100000)"><path d="M4712.4,4860C4402.1,4632.5,3259.2,3437.9,2778.3,2838c-563.7-708.5-920.5-1261.8-1241.2-1918.6c-331-687.8-465.4-1215.3-465.4-1830.7c0-1737.6,1189.5-3268.4,2927.1-3754.5c574-165.5,1432.5-165.5,2006.6,0c1427.3,398.2,2466.8,1463.5,2828.8,2896.1c144.8,574,119,1406.6-51.7,1918.6C8384.2,1317.5,7463.6,2657,6057,4125.7c-589.6,620.6-910.2,884.3-1055,884.3C4955.5,5010,4821,4942.8,4712.4,4860z M5586.4,3458.5C7179.2,1808.8,8156.6,159.1,8156.6-885.5c-5.1-1148.1-724-2285.8-1763.5-2782.2c-512-248.2-837.8-320.6-1391.2-320.6s-879.2,72.4-1391.1,320.6C2571.4-3171.3,1852.6-2033.6,1847.4-880.4c0,1060.2,894.7,2611.6,2435.8,4204.4c372.3,387.9,698.2,703.3,718.8,703.3S5286.5,3774,5586.4,3458.5z"/><path d="M2721.4-580.4c-103.4-103.4-108.6-150-82.7-527.5c20.7-331,62.1-486.1,212-780.9c325.8-667.1,1008.4-1184.2,1732.5-1323.9c424.1-77.6,517.2-67.2,687.8,103.4c124.1,129.3,150,186.2,118.9,299.9c-56.9,232.7-186.2,320.6-563.7,377.5c-791.3,108.6-1308.4,630.9-1417,1432.5c-25.9,181-82.8,362-139.6,424.1C3140.3-435.6,2861-440.8,2721.4-580.4z"/></g></g>
</svg>