<?xml version="1.0" encoding="utf-8"?>
<!-- Svg Vector Icons : http://www.onlinewebfonts.com/icon -->
<!DOCTYPE svg PUBLIC "-//W3C//DTD SVG 1.1//EN" "http://www.w3.org/Graphics/SVG/1.1/DTD/svg11.dtd">
<svg version="1.1" xmlns="http://www.w3.org/2000/svg" xmlns:xlink="http://www.w3.org/1999/xlink" x="0px" y="0px" viewBox="0 0 1000 1000" enable-background="new 0 0 1000 1000" xml:space="preserve">
<metadata> Svg Vector Icons : http://www.onlinewebfonts.com/icon </metadata>
<g><g transform="translate(0.000000,511.000000) scale(0.100000,-0.100000)"><path d="M222.5,4895.3c-23-7.7-59.3-40.2-82.3-68.9l-40.2-51.7V108.3v-4668.3l55.5-61.3l55.5-63.2l4630.1-5.7c3317-3.8,4649.2,0,4700.9,15.3c78.5,23,147.4,109.1,147.4,187.6c0,74.7-55.5,158.9-124.4,187.6c-55.5,23-719.7,26.8-4565,26.8h-4498v2036.5v2036.5l248.8,7.7c241.2,5.7,248.8,7.6,300.5,59.3c42.1,42.1,53.6,70.8,53.6,139.7c0,74.7-9.6,95.7-63.2,143.6c-61.3,55.5-63.2,55.5-300.5,55.5H501.9v409.6v409.6l248.8,7.7c241.2,5.7,248.8,7.7,300.5,59.3c42.1,42.1,53.6,70.8,53.6,139.7c0,74.6-9.6,95.7-63.2,143.6c-61.3,55.5-63.2,55.5-300.5,55.5H501.9v409.6V2250l248.8,7.7c241.2,5.7,248.8,7.7,300.5,59.3c42.1,42.1,53.6,70.8,53.6,139.7c0,74.6-9.6,95.7-63.2,143.5c-61.3,55.5-63.2,55.5-300.5,55.5H501.9v409.6V3475l248.8,7.7c241.2,5.7,248.8,7.7,300.5,59.3c42.1,42.1,53.6,70.8,53.6,139.7c0,74.6-9.6,95.7-63.2,143.6c-61.3,55.5-63.2,55.5-300.5,55.5H501.9v430.7c0,484.2-9.6,526.4-124.4,576.1C302.9,4918.2,279.9,4918.2,222.5,4895.3z"/><path d="M8674.9,4711.5c-191.4-40.2-356-132.1-499.6-273.7c-392.4-392.4-407.7-999.1-34.5-1406.8l88-97.6l-740.7-1359C6757,234.6,6745.5,215.4,6692,221.2c-30.6,3.8-149.3,7.7-266.1,7.7c-178,1.9-227.8-3.8-325.4-42.1C5692.8,29.8,5421-351.1,5421-760.7v-116.8l-1066.1-329.2c-587.6-181.8-1073.8-329.2-1079.5-329.2c-7.7,0-40.2,42.1-74.6,95.7c-80.4,124.4-233.5,264.1-377.1,338.8c-566.5,304.3-1269-1.9-1450.8-631.6c-44-155-42.1-411.5,7.7-568.5c40.2-130.1,124.4-279.5,206.7-365.6l47.9-51.7l-403.9-537.9c-224-296.7-413.4-560.8-424.9-589.5c-44-118.7,61.3-254.6,201-254.6c105.3,0,112.9,7.7,566.6,622.1c202.9,273.7,375.2,505.3,382.8,514.9c9.6,9.6,44,5.7,80.4-5.8c344.5-120.6,775.2-15.3,1037.4,252.7c185.7,189.5,296.7,446,298.6,687.1v90l245,76.6c1774.3,555.1,1927.4,599.1,1946.6,564.6c111-187.6,344.5-373.2,564.6-447.9c170.4-59.4,436.4-59.4,614.4-1.9c327.3,105.3,610.6,407.7,685.2,729.3c34.5,145.5,24.9,403.9-17.2,539.8c-42.1,135.9-153.1,319.6-246.9,405.8c-32.5,32.5-59.3,65.1-59.3,74.7c0,11.5,333,629.7,740.7,1376.2l740.7,1359l86.1-17.2c47.9-7.7,160.8-15.3,250.7-13.4c436.4,3.8,817.3,298.6,945.5,733.1c44,149.3,40.2,424.9-7.7,580c-105.3,344.5-411.5,618.2-777.1,694.8C8923.7,4747.9,8837.6,4747.9,8674.9,4711.5z"/></g></g>
</svg>