<?xml version="1.0" encoding="utf-8"?>
<!-- Svg Vector Icons : http://www.onlinewebfonts.com/icon -->
<!DOCTYPE svg PUBLIC "-//W3C//DTD SVG 1.1//EN" "http://www.w3.org/Graphics/SVG/1.1/DTD/svg11.dtd">
<svg version="1.1" xmlns="http://www.w3.org/2000/svg" xmlns:xlink="http://www.w3.org/1999/xlink" x="0px" y="0px" viewBox="0 0 1000 1000" enable-background="new 0 0 1000 1000" xml:space="preserve">
<metadata> Svg Vector Icons : http://www.onlinewebfonts.com/icon </metadata>
<g><g transform="translate(0.000000,511.000000) scale(0.100000,-0.100000)"><path d="M3481.8,4993.3c-188-44.9-349.4-171.6-445.4-349.4l-69.5-128.7l-6.1-623.1l-6.1-623.1h2018.5c1109.3,0,2030.7,4.1,2045,6.1c22.5,4.1,24.5,126.7,20.4,623.1l-6.1,617L6963,4644c-77.6,143-187.9,245.2-341.2,314.6l-100.1,47l-1481.2,4.1C4211.1,5011.7,3524.7,5003.6,3481.8,4993.3z"/><path d="M2337.7,2962.6c-98.1-34.7-173.7-102.2-210.4-188c-24.5-55.1-28.6-661.9-28.6-3671.2c0-2492.5,6.1-3622.2,22.5-3663.1c30.6-85.8,138.9-188,222.7-210.4c98.1-26.6,5213.7-26.6,5311.8,0c83.7,22.5,192,124.6,222.7,210.4c30.7,81.7,30.7,7240.3,0,7322.1c-30.6,81.7-98.1,149.1-192,192c-77.6,36.8-196.1,38.8-2676.3,36.8C2864.8,2991.2,2401.1,2987.1,2337.7,2962.6z M5575.9,1074.9l67.4-59.2l6.1-635.4l6.1-635.4h619c594.5,0,621.1-2,672.1-42.9c87.9-67.4,100.1-151.2,91.9-655.8l-6.1-465.8l-67.4-65.4l-65.4-67.4l-623.1-6.1l-623.1-6.1v-615v-612.9l-69.5-69.4l-69.5-69.5h-514.8h-514.8l-69.5,69.5l-69.5,69.4v612.9v615l-623.1,6.1l-623.1,6.1l-65.4,67.4l-67.4,65.4l-6.1,465.8c-8.2,504.6,4.1,588.4,91.9,655.8c51.1,40.9,77.6,42.9,672.1,42.9H4346v625.2v625.1l69.5,69.5l69.5,69.4h512.8h512.8L5575.9,1074.9z"/></g></g>
</svg>